<svg width="35" height="35" viewBox="0 0 35 35" fill="none" xmlns="http://www.w3.org/2000/svg">
<circle cx="17.5" cy="17.5" r="17" stroke="#B6B6B6"/>
<path d="M9.02914 21.9836H23.0077C23.2725 21.9836 23.5264 21.8783 23.7137 21.691C23.9009 21.5037 24.0061 21.2496 24.0061 20.9847C24.0061 20.7198 23.9009 20.4658 23.7137 20.2785C23.5264 20.0911 23.2725 19.9859 23.0077 19.9859H12.5837C11.9161 19.9859 11.2676 19.7629 10.7411 19.3521C10.2147 18.9413 9.8406 18.3664 9.67814 17.7186L8.03067 11.2362C7.99328 11.0888 7.99003 10.9348 8.02118 10.7859C8.05232 10.637 8.11704 10.4972 8.2104 10.3772C8.3075 10.2541 8.43222 10.1556 8.57446 10.0896C8.7167 10.0237 8.87247 9.99217 9.02914 9.99765H23.2473C23.4533 9.41479 23.8345 8.90993 24.3386 8.55229C24.8426 8.19465 25.445 8.00174 26.063 8H27.0015C27.2663 8 27.5203 8.10523 27.7076 8.29255C27.8948 8.47987 28 8.73392 28 8.99883C28 9.26373 27.8948 9.51779 27.7076 9.7051C27.5203 9.89242 27.2663 9.99765 27.0015 9.99765H26.063C25.8349 9.991 25.6114 10.0627 25.4297 10.2008C25.2481 10.3389 25.1192 10.5351 25.0645 10.7568L25.0046 11.2362L23.2773 17.9883C24.0717 18.024 24.8194 18.374 25.3558 18.9612C25.8923 19.5485 26.1736 20.3249 26.1379 21.1196C26.1021 21.9143 25.7522 22.6622 25.1652 23.1989C24.5782 23.7356 23.8021 24.017 23.0077 23.9812H22.8279C22.9922 24.4338 23.0449 24.9193 22.9818 25.3966C22.9186 25.874 22.7414 26.329 22.4652 26.7233C22.1889 27.1176 21.8218 27.4395 21.3948 27.6617C20.9678 27.884 20.4936 28 20.0123 28C19.531 28 19.0567 27.884 18.6297 27.6617C18.2028 27.4395 17.8356 27.1176 17.5594 26.7233C17.2831 26.329 17.1059 25.874 17.0428 25.3966C16.9796 24.9193 17.0324 24.4338 17.1966 23.9812H14.8402C15.0044 24.4338 15.0572 24.9193 14.994 25.3966C14.9309 25.874 14.7537 26.329 14.4775 26.7233C14.2012 27.1176 13.834 27.4395 13.4071 27.6617C12.9801 27.884 12.5059 28 12.0245 28C11.5432 28 11.069 27.884 10.642 27.6617C10.215 27.4395 9.84787 27.1176 9.57162 26.7233C9.29538 26.329 9.11818 25.874 9.05503 25.3966C8.99189 24.9193 9.04465 24.4338 9.20887 23.9812H9.02914C8.76433 23.9812 8.51037 23.876 8.32312 23.6887C8.13587 23.5013 8.03067 23.2473 8.03067 22.9824C8.03067 22.7175 8.13587 22.4634 8.32312 22.2761C8.51037 22.0888 8.76433 21.9836 9.02914 21.9836ZM10.3072 11.9953L11.6152 17.2291C11.6698 17.4508 11.7987 17.647 11.9804 17.7851C12.1621 17.9232 12.3856 17.9949 12.6136 17.9883H21.2304L22.7281 11.9953H10.3072ZM20.0123 25.9789C20.2097 25.9789 20.4028 25.9203 20.567 25.8105C20.7312 25.7008 20.8592 25.5448 20.9347 25.3623C21.0103 25.1798 21.0301 24.9789 20.9916 24.7852C20.953 24.5914 20.8579 24.4134 20.7183 24.2738C20.5787 24.1341 20.4007 24.0389 20.2071 24.0004C20.0134 23.9619 19.8126 23.9816 19.6302 24.0572C19.4477 24.1328 19.2918 24.2609 19.1821 24.4251C19.0724 24.5894 19.0138 24.7825 19.0138 24.98C19.0138 25.2449 19.119 25.499 19.3062 25.6863C19.4935 25.8736 19.7475 25.9789 20.0123 25.9789ZM12.0245 25.9789C12.222 25.9789 12.4151 25.9203 12.5793 25.8105C12.7435 25.7008 12.8714 25.5448 12.947 25.3623C13.0226 25.1798 13.0423 24.9789 13.0038 24.7852C12.9653 24.5914 12.8702 24.4134 12.7306 24.2738C12.5909 24.1341 12.413 24.0389 12.2193 24.0004C12.0256 23.9619 11.8249 23.9816 11.6424 24.0572C11.46 24.1328 11.3041 24.2609 11.1943 24.4251C11.0846 24.5894 11.0261 24.7825 11.0261 24.98C11.0261 25.2449 11.1313 25.499 11.3185 25.6863C11.5058 25.8736 11.7597 25.9789 12.0245 25.9789Z" fill="#B6B6B6"/>
</svg>
