<svg width="24" height="24" viewBox="0 0 24 24" fill="none" xmlns="http://www.w3.org/2000/svg">
<rect width="24" height="24" fill="white"/>
<path d="M0.666626 13.3246C3.26385 11.6719 5.15274 10.4913 7.15968 9.31075C11.8819 6.71353 16.4861 4.11632 21.0902 1.28298C22.8611 0.220483 23.3333 0.456566 23.3333 2.58157C23.2152 4.11629 22.9791 5.53298 22.743 7.0677C22.0347 11.4358 21.2083 15.8038 20.5 20.1719C20.2639 21.4705 19.7916 21.8246 18.6111 21.1163C18.0208 20.7621 17.4305 20.6441 16.8402 20.408C13.7708 19.1094 13.4166 19.1094 11.1736 21.5885C10.7014 22.0607 10.5833 22.7691 9.63886 22.8871C9.28469 20.6441 8.81246 18.6372 10.4652 16.6302C12.118 14.5052 13.6527 12.4982 15.4236 10.3732C15.8958 9.78296 16.25 9.19268 16.4861 8.48434C13.7708 10.2552 11.0555 12.1441 8.81247 14.5052C7.98608 15.4496 7.27775 15.5677 6.09719 15.0955C4.56247 14.5052 2.90968 14.033 0.666626 13.3246Z" fill="#1B3E1A" fill-opacity="0.5"/>
</svg>
